<svg xmlns="http://www.w3.org/2000/svg" xmlns:xlink="http://www.w3.org/1999/xlink" width="500" zoomAndPan="magnify" viewBox="0 0 375 374.999991" height="500" preserveAspectRatio="xMidYMid meet" version="1.0"><path fill="#236dd2" d="M 371.121094 214.972656 C 370.03125 230.960938 368.921875 247.078125 364.859375 262.59375 C 354.039062 303.84375 321.949219 338.386719 282.488281 355.988281 C 243.027344 373.59375 197.035156 374.953125 155.359375 363.199219 C 137.898438 358.28125 120.738281 350.929688 107.417969 338.78125 C 90.257812 323.125 80.976562 300.980469 73.144531 279.28125 C 59.796875 242.320312 49.296875 200.894531 64.589844 164.675781 C 69.398438 153.289062 85.101562 122.90625 101.503906 115.519531 C 170.761719 84.316406 250.285156 65.210938 316.539062 102.171875 C 337.417969 113.8125 356.886719 130.007812 365.839844 151.898438 C 373.890625 171.652344 372.578125 193.730469 371.121094 214.972656 Z M 371.121094 214.972656 " fill-opacity="1" fill-rule="nonzero"/><path fill="#0c274e" d="M 243.847656 49.363281 C 214.003906 38.558594 180.902344 37.058594 150.472656 46.40625 C 121.386719 55.324219 95.097656 73.339844 75.691406 96.699219 C 55.96875 120.441406 43.410156 149.761719 40.847656 180.589844 C 38.238281 211.96875 45.785156 244.3125 61.789062 271.40625 C 69.414062 284.308594 79.011719 296.25 90.386719 306.042969 C 101.726562 315.816406 114.742188 323.390625 128.660156 328.878906 C 157.921875 340.425781 191.023438 342.847656 221.945312 337.707031 C 251.773438 332.738281 280.414062 319.4375 301.371094 297.3125 C 322.457031 275.058594 334.617188 245.84375 338.621094 215.667969 C 339.648438 207.933594 340.136719 200.136719 340.152344 192.324219 C 340.105469 161.324219 332.625 129.738281 315.273438 103.722656 C 298.367188 78.335938 272.367188 59.691406 243.847656 49.363281 Z M 335.410156 192.324219 C 335.359375 222.296875 327.863281 252.488281 311.082031 277.589844 C 294.714844 302.054688 270.089844 319.34375 242.09375 328.074219 C 213.054688 337.121094 180.933594 337.878906 151.339844 330.96875 C 136.996094 327.613281 123.109375 322.300781 110.457031 314.726562 C 97.945312 307.226562 87.03125 297.546875 77.84375 286.253906 C 58.832031 262.910156 47.667969 233.398438 45.515625 203.457031 C 43.332031 173.105469 50.84375 142.914062 66.851562 117.039062 C 82.304688 92.050781 105.125 71.648438 131.585938 58.882812 C 159.40625 45.472656 190.832031 41.722656 221.074219 47.890625 C 250.175781 53.820312 277.789062 68.371094 298.304688 89.976562 C 318.785156 111.535156 330.347656 140.320312 334 169.582031 C 334.949219 177.125 335.394531 184.714844 335.410156 192.324219 Z M 280.226562 96.398438 C 280.226562 96.398438 314.261719 133.425781 307.746094 147.265625 C 303.492188 156.277344 297.640625 154.507812 294.476562 143.246094 C 291.3125 131.96875 285.351562 131.242188 282.21875 132.808594 C 275.101562 136.367188 278.390625 152.214844 291.042969 161.054688 C 303.714844 169.914062 306.859375 188.589844 292.609375 201.480469 C 278.359375 214.371094 283.421875 221.125 279.46875 226.753906 C 275.511719 232.386719 265.214844 239.628906 243.753906 254.925781 C 222.292969 270.21875 238.28125 231.785156 244.609375 215.683594 C 250.933594 199.582031 235.910156 173.011719 221.660156 159.332031 C 207.410156 145.652344 195.246094 151.042969 180.996094 137.363281 C 166.746094 123.683594 189.695312 120.457031 187.132812 111.597656 C 184.554688 102.742188 177.832031 105.160156 173.878906 95.496094 C 171.585938 89.914062 179.605469 85.675781 187.542969 82.78125 C 189.648438 82.023438 188.984375 78.890625 186.753906 79.015625 C 180.601562 79.347656 173.46875 79.949219 167.535156 81.011719 C 154.078125 83.429688 156.625 103.675781 141.425781 105.160156 C 124.691406 106.789062 112.070312 91.402344 113.683594 89.960938 C 115.3125 88.523438 159.707031 53.363281 215.316406 63.535156 C 254.113281 70.632812 280.226562 96.398438 280.226562 96.398438 Z M 183.636719 303.464844 C 176.804688 308.507812 165.054688 314.265625 165.054688 314.265625 C 165.054688 314.265625 109.113281 295.300781 88.125 264.570312 C 61.394531 225.410156 68.9375 192.609375 68.9375 192.609375 C 68.9375 192.609375 98.167969 176.066406 106.519531 197.9375 C 114.867188 219.8125 117.683594 206.621094 132.660156 235.566406 C 147.640625 264.523438 146.136719 285.085938 164.753906 284.042969 C 183.367188 282.996094 190.46875 298.417969 183.636719 303.464844 Z M 282.835938 255.335938 C 276.984375 266.167969 253.671875 284.691406 262.734375 260.695312 C 262.71875 260.695312 288.6875 244.515625 282.835938 255.335938 Z M 308.203125 216.917969 C 324.085938 214.832031 322.519531 240.453125 316.539062 243.867188 C 312.617188 246.097656 312.113281 240.359375 309.421875 237.574219 C 306.734375 234.789062 303.871094 243.648438 296.027344 243.617188 C 288.179688 243.566406 293.003906 236.800781 295.664062 229.128906 C 298.335938 221.441406 289.574219 219.355469 308.203125 216.917969 Z M 23.515625 303.652344 C 23.355469 303.335938 23.214844 303.003906 23.070312 302.6875 C 19.78125 295.476562 17.078125 287.980469 14.65625 280.433594 C 9.976562 265.820312 6.542969 250.796875 4.425781 235.613281 C 1.640625 215.714844 1.039062 195.519531 3.238281 175.527344 C 5.800781 152.214844 12.078125 129.453125 22.1875 108.277344 C 33.367188 84.789062 49.183594 63.089844 68.402344 45.535156 C 84.550781 30.777344 103.339844 19.152344 123.851562 11.53125 C 141.613281 4.933594 160.464844 1.472656 179.382812 0.648438 C 195.640625 -0.046875 211.949219 1.234375 227.96875 4.050781 C 239.5625 6.089844 251.015625 8.953125 262.179688 12.667969 C 266.703125 14.171875 271.242188 15.785156 275.59375 17.730469 C 278.375 18.980469 275.957031 23.074219 273.203125 21.828125 C 272.933594 21.699219 272.667969 21.589844 272.398438 21.476562 C 273.1875 21.828125 272.269531 21.429688 271.875 21.257812 C 271.402344 21.066406 270.925781 20.878906 270.453125 20.6875 C 269.105469 20.148438 267.761719 19.644531 266.417969 19.152344 C 262.449219 17.699219 258.429688 16.386719 254.382812 15.167969 C 242.203125 11.515625 229.710938 8.792969 217.105469 7.132812 C 200.625 4.949219 183.875 4.539062 167.332031 6.277344 C 148.429688 8.273438 129.75 13.238281 112.558594 21.382812 C 92.25 31 74.285156 44.839844 59.226562 61.476562 C 41.910156 80.628906 28.132812 103.105469 19.246094 127.335938 C 11.652344 148.039062 7.570312 169.898438 6.78125 191.929688 C 6.101562 210.65625 7.699219 229.429688 11.242188 247.824219 C 13.804688 261.09375 17.316406 274.1875 21.871094 286.921875 C 22.613281 289.023438 23.402344 291.109375 24.210938 293.183594 C 24.542969 294.039062 24.875 294.875 25.222656 295.714844 C 25.382812 296.109375 25.539062 296.503906 25.714844 296.898438 C 25.777344 297.058594 25.839844 297.214844 25.902344 297.359375 C 25.902344 297.375 25.902344 297.375 25.917969 297.390625 C 26.472656 298.6875 27.027344 299.984375 27.628906 301.25 C 28.941406 304 24.84375 306.390625 23.515625 303.652344 Z M 29.605469 329.527344 C 29.589844 329.527344 29.574219 329.527344 29.554688 329.511719 C 29.574219 329.511719 29.589844 329.511719 29.605469 329.527344 Z M 40.960938 326.648438 C 40.515625 325.480469 40.089844 324.308594 39.648438 323.140625 C 39.648438 323.125 39.632812 323.125 39.632812 323.105469 C 39.585938 322.917969 39.503906 322.726562 39.410156 322.570312 C 39.378906 322.523438 39.347656 322.507812 39.316406 322.476562 C 39.125 322.175781 38.886719 321.921875 38.554688 321.714844 C 38.050781 321.414062 37.289062 321.289062 36.722656 321.476562 C 36.5625 321.527344 36.40625 321.605469 36.261719 321.683594 C 36.230469 321.699219 36.183594 321.699219 36.152344 321.714844 C 33.652344 322.871094 31.167969 324.023438 28.671875 325.179688 C 28.179688 325.402344 27.691406 326.082031 27.578125 326.601562 C 27.453125 327.140625 27.484375 327.648438 27.707031 328.152344 C 28.070312 329.007812 28.8125 329.480469 29.652344 329.574219 C 29.746094 329.640625 29.839844 329.6875 29.921875 329.75 C 29.9375 329.765625 29.96875 329.78125 30 329.8125 C 30.046875 329.84375 30.078125 329.875 30.09375 329.890625 C 30.347656 330.113281 30.617188 330.335938 30.871094 330.558594 C 32.101562 331.632812 33.351562 332.691406 34.902344 333.277344 C 35.773438 333.609375 36.738281 333.65625 37.636719 333.433594 C 38.761719 333.152344 39.617188 332.390625 40.28125 331.472656 C 40.5 331.171875 40.691406 330.855469 40.847656 330.523438 C 41.230469 329.71875 41.703125 328.769531 41.417969 327.867188 C 41.277344 327.425781 41.101562 327.046875 40.960938 326.648438 Z M 29.636719 329.542969 C 29.207031 329.449219 29.304688 329.355469 29.574219 329.511719 C 29.589844 329.511719 29.589844 329.527344 29.605469 329.527344 C 29.636719 329.542969 29.667969 329.542969 29.714844 329.558594 C 29.90625 329.574219 30.09375 329.558594 30.285156 329.527344 C 30.09375 329.558594 29.890625 329.59375 30.03125 329.59375 C 30.253906 329.59375 30.140625 329.703125 29.730469 329.574219 C 29.714844 329.574219 29.714844 329.574219 29.699219 329.574219 C 29.667969 329.558594 29.652344 329.558594 29.621094 329.542969 C 29.621094 329.527344 29.621094 329.527344 29.636719 329.542969 Z M 29.699219 329.558594 C 29.699219 329.558594 29.699219 329.542969 29.699219 329.558594 C 29.746094 329.574219 29.792969 329.59375 29.808594 329.59375 C 29.761719 329.59375 29.746094 329.574219 29.714844 329.574219 C 29.714844 329.558594 29.699219 329.558594 29.699219 329.558594 Z M 349.089844 53.253906 C 344.441406 49.410156 339.789062 45.566406 335.140625 41.738281 C 334.871094 38.054688 334.964844 34.367188 335.027344 30.667969 C 335.0625 28.644531 335.0625 26.617188 334.949219 24.59375 C 334.855469 22.917969 334.792969 21.128906 333.746094 19.738281 C 332.5625 18.140625 330.441406 17.699219 328.6875 18.632812 C 326.929688 19.566406 326.046875 21.429688 325.382812 23.21875 C 324.382812 25.921875 323.578125 28.722656 322.753906 31.503906 C 319.703125 28.976562 316.636719 26.460938 313.582031 23.929688 C 312.492188 23.027344 311.113281 22.109375 310.515625 20.765625 C 309.898438 19.359375 309.882812 17.683594 309.613281 16.179688 C 309.121094 13.539062 307.683594 11.101562 305.152344 9.964844 C 298.144531 6.816406 296.296875 17.824219 295.964844 22.425781 C 295.566406 28.027344 298.273438 32.152344 302.019531 35.539062 C 299.394531 35.917969 296.785156 36.3125 294.160156 36.726562 C 290.726562 37.277344 287.296875 37.847656 283.894531 38.542969 C 280.953125 39.144531 275.640625 40.21875 277.585938 44.507812 C 279.386719 48.460938 285.113281 49.296875 288.863281 49.898438 C 294.097656 50.738281 299.347656 51.558594 304.644531 52.050781 C 309.597656 52.507812 314.753906 52.191406 319.59375 53.425781 C 324.257812 54.613281 327.976562 57.746094 332.085938 60.085938 C 336.152344 62.410156 341.070312 64.054688 345.769531 62.867188 C 347.808594 62.347656 350.210938 61.207031 351.128906 59.199219 C 352.15625 56.90625 350.8125 54.738281 349.089844 53.253906 Z M 329.191406 26.855469 C 329.429688 26.066406 329.667969 25.257812 329.953125 24.484375 C 329.984375 24.402344 330.0625 24.261719 330.15625 24.089844 C 330.457031 28.613281 330.171875 33.152344 330.203125 37.675781 C 329.050781 36.710938 327.878906 35.761719 326.726562 34.796875 C 327.546875 32.152344 328.371094 29.496094 329.191406 26.855469 Z M 344.789062 58.21875 C 343.144531 58.695312 341.386719 58.582031 339.742188 58.1875 C 335.976562 57.285156 332.847656 54.992188 329.621094 52.953125 C 326.363281 50.894531 322.976562 49.1875 319.148438 48.492188 C 315.117188 47.75 311.003906 47.796875 306.90625 47.496094 C 302.542969 47.179688 298.210938 46.59375 293.875 45.929688 C 290.539062 45.40625 286.300781 45.296875 283.261719 43.542969 C 283.324219 43.527344 283.390625 43.496094 283.4375 43.496094 C 284.765625 43.195312 286.09375 42.941406 287.421875 42.6875 C 290.238281 42.148438 293.070312 41.675781 295.898438 41.234375 C 298.714844 40.789062 301.53125 40.363281 304.34375 39.96875 C 305.308594 39.824219 306.292969 39.699219 307.253906 39.554688 C 307.351562 39.539062 307.621094 39.507812 307.792969 39.476562 C 307.824219 39.476562 307.839844 39.476562 307.871094 39.460938 C 307.953125 39.445312 307.984375 39.445312 307.871094 39.460938 C 310.164062 39.160156 311.148438 36.457031 309.074219 35.046875 C 306.464844 33.277344 303.714844 31.347656 302.035156 28.613281 C 300.089844 25.402344 300.566406 21.777344 301.484375 18.316406 C 301.65625 17.667969 302.179688 14.410156 302.875 14.171875 C 304.0625 13.777344 304.851562 16.527344 304.976562 17.144531 C 305.660156 20.449219 305.832031 23.34375 308.457031 25.8125 C 311.273438 28.46875 314.453125 30.808594 317.441406 33.261719 C 320.558594 35.824219 323.65625 38.386719 326.773438 40.964844 C 333.097656 46.183594 339.410156 51.386719 345.738281 56.605469 C 345.816406 56.667969 346.386719 57.300781 346.542969 57.347656 C 346.542969 57.347656 346.542969 57.347656 346.558594 57.347656 C 346.003906 57.730469 345.4375 58.03125 344.789062 58.21875 Z M 346.75 57.429688 C 346.984375 57.523438 346.8125 57.523438 346.75 57.429688 Z M 346.75 57.429688 " fill-opacity="1" fill-rule="nonzero"/></svg>