<svg xmlns="http://www.w3.org/2000/svg" xmlns:xlink="http://www.w3.org/1999/xlink" width="200" zoomAndPan="magnify" viewBox="0 0 150 74.999997" height="100" preserveAspectRatio="xMidYMid meet" version="1.0"><defs><g/></defs><g fill="#0c274e" fill-opacity="1"><g transform="translate(3.40663, 49.886428)"><g><path d="M 3.5625 0 L 3.5625 -37.515625 L 13.078125 -37.515625 L 13.078125 -7.734375 L 30.296875 -7.734375 L 30.296875 0 Z M 3.5625 0 "/></g></g></g><g fill="#0c274e" fill-opacity="1"><g transform="translate(32.366493, 49.886428)"><g><path d="M 8.203125 0 L 2.546875 -5.65625 L 2.546875 -31.875 L 8.203125 -37.515625 L 30.1875 -37.515625 L 35.84375 -31.875 L 35.84375 -5.65625 L 30.1875 0 Z M 13.890625 -7.234375 L 24.59375 -7.234375 L 26.375 -9.015625 L 26.375 -28.5 L 24.484375 -30.296875 L 13.890625 -30.296875 L 12.0625 -28.5 L 12.0625 -9.015625 Z M 13.890625 -7.234375 "/></g></g></g><g fill="#0c274e" fill-opacity="1"><g transform="translate(68.655481, 49.886428)"><g><path d="M 8.203125 0 L 2.546875 -5.65625 L 2.546875 -31.875 L 8.203125 -37.515625 L 29.171875 -37.515625 L 34.8125 -31.875 L 34.8125 -24.9375 L 25.5625 -25 L 25.5625 -28.5 L 23.71875 -30.296875 L 13.890625 -30.296875 L 12.0625 -28.5 L 12.0625 -9.0625 L 13.890625 -7.234375 L 21.890625 -7.234375 L 26.78125 -11.5625 L 26.78125 -12.875 L 19.90625 -12.875 L 19.90625 -20.15625 L 35.375 -20.15625 L 35.375 0 L 27.34375 0 L 27.34375 -3.359375 L 23.5625 0 Z M 8.203125 0 "/></g></g></g><g fill="#0c274e" fill-opacity="1"><g transform="translate(108.201847, 49.886428)"><g><path d="M 8.203125 0 L 2.546875 -5.65625 L 2.546875 -31.875 L 8.203125 -37.515625 L 30.1875 -37.515625 L 35.84375 -31.875 L 35.84375 -5.65625 L 30.1875 0 Z M 13.890625 -7.234375 L 24.59375 -7.234375 L 26.375 -9.015625 L 26.375 -28.5 L 24.484375 -30.296875 L 13.890625 -30.296875 L 12.0625 -28.5 L 12.0625 -9.015625 Z M 13.890625 -7.234375 "/></g></g></g><g fill="#0c274e" fill-opacity="1"><g transform="translate(17.918263, 70.66872)"><g><path d="M 0.46875 -7.296875 L 6.28125 -7.296875 L 6.28125 -6.71875 L 3.734375 -6.71875 L 3.734375 0 L 3.046875 0 L 3.046875 -6.71875 L 0.46875 -6.71875 Z M 0.46875 -7.296875 "/></g></g></g><g fill="#0c274e" fill-opacity="1"><g transform="translate(32.980416, 70.66872)"><g/></g></g><g fill="#0c274e" fill-opacity="1"><g transform="translate(44.820794, 70.66872)"><g><path d="M 1.46875 0 L 0.78125 0 L 0.78125 -7.296875 L 3.125 -7.296875 C 3.707031 -7.296875 4.203125 -7.238281 4.609375 -7.125 C 5.023438 -7.019531 5.34375 -6.816406 5.5625 -6.515625 C 5.78125 -6.222656 5.890625 -5.804688 5.890625 -5.265625 C 5.890625 -4.722656 5.773438 -4.316406 5.546875 -4.046875 C 5.316406 -3.773438 5.007812 -3.597656 4.625 -3.515625 L 4.625 -3.3125 L 5.46875 -3.3125 C 5.664062 -3.3125 5.800781 -3.273438 5.875 -3.203125 C 5.945312 -3.128906 5.984375 -3.003906 5.984375 -2.828125 L 5.984375 0 L 5.296875 0 L 5.296875 -3 L 1.46875 -3 Z M 1.46875 -6.71875 L 1.46875 -3.578125 L 3.125 -3.578125 C 3.5625 -3.578125 3.9375 -3.609375 4.25 -3.671875 C 4.5625 -3.734375 4.796875 -3.875 4.953125 -4.09375 C 5.117188 -4.320312 5.203125 -4.675781 5.203125 -5.15625 C 5.203125 -5.632812 5.117188 -5.984375 4.953125 -6.203125 C 4.796875 -6.421875 4.5625 -6.5625 4.25 -6.625 C 3.9375 -6.6875 3.5625 -6.71875 3.125 -6.71875 Z M 1.46875 -6.71875 "/></g></g></g><g fill="#0c274e" fill-opacity="1"><g transform="translate(59.893306, 70.66872)"><g/></g></g><g fill="#0c274e" fill-opacity="1"><g transform="translate(71.733683, 70.66872)"><g><path d="M 6.59375 0 L 5.921875 0 L 4.9375 -2.96875 L 2.015625 -2.96875 L 1.046875 0 L 0.375 0 L 2.78125 -7.296875 L 4.1875 -7.296875 Z M 3.375 -7.09375 L 2.203125 -3.546875 L 4.75 -3.546875 L 3.578125 -7.09375 Z M 3.375 -7.09375 "/></g></g></g><g fill="#0c274e" fill-opacity="1"><g transform="translate(86.992661, 70.66872)"><g/></g></g><g fill="#0c274e" fill-opacity="1"><g transform="translate(98.833038, 70.66872)"><g><path d="M 3.03125 -7.296875 C 3.375 -7.296875 3.71875 -7.269531 4.0625 -7.21875 C 4.40625 -7.164062 4.726562 -7.066406 5.03125 -6.921875 C 5.34375 -6.773438 5.617188 -6.566406 5.859375 -6.296875 C 6.097656 -6.023438 6.285156 -5.671875 6.421875 -5.234375 C 6.554688 -4.804688 6.625 -4.28125 6.625 -3.65625 C 6.625 -3.03125 6.554688 -2.5 6.421875 -2.0625 C 6.285156 -1.632812 6.097656 -1.28125 5.859375 -1 C 5.617188 -0.726562 5.34375 -0.519531 5.03125 -0.375 C 4.726562 -0.238281 4.40625 -0.140625 4.0625 -0.078125 C 3.71875 -0.0234375 3.375 0 3.03125 0 L 0.78125 0 L 0.78125 -7.296875 Z M 1.46875 -0.578125 L 3.03125 -0.578125 C 3.289062 -0.578125 3.554688 -0.59375 3.828125 -0.625 C 4.097656 -0.664062 4.359375 -0.738281 4.609375 -0.84375 C 4.859375 -0.957031 5.082031 -1.125 5.28125 -1.34375 C 5.476562 -1.570312 5.632812 -1.875 5.75 -2.25 C 5.875 -2.625 5.9375 -3.09375 5.9375 -3.65625 C 5.9375 -4.21875 5.875 -4.6875 5.75 -5.0625 C 5.632812 -5.4375 5.476562 -5.734375 5.28125 -5.953125 C 5.082031 -6.171875 4.859375 -6.335938 4.609375 -6.453125 C 4.359375 -6.566406 4.097656 -6.640625 3.828125 -6.671875 C 3.554688 -6.703125 3.289062 -6.71875 3.03125 -6.71875 L 1.46875 -6.71875 Z M 1.46875 -0.578125 "/></g></g></g><g fill="#0c274e" fill-opacity="1"><g transform="translate(114.43388, 70.66872)"><g/></g></g><g fill="#0c274e" fill-opacity="1"><g transform="translate(126.274257, 70.66872)"><g><path d="M 5.171875 0 L 0.78125 0 L 0.78125 -7.296875 L 5.171875 -7.296875 L 5.171875 -6.71875 L 1.46875 -6.71875 L 1.46875 -3.953125 L 4.65625 -3.953125 L 4.65625 -3.359375 L 1.46875 -3.359375 L 1.46875 -0.578125 L 5.171875 -0.578125 Z M 5.171875 0 "/></g></g></g></svg>