<svg xmlns="http://www.w3.org/2000/svg" xmlns:xlink="http://www.w3.org/1999/xlink" width="200" zoomAndPan="magnify" viewBox="0 0 150 74.999997" height="100" preserveAspectRatio="xMidYMid meet" version="1.0"><defs><g/></defs><g fill="#ffffff" fill-opacity="1"><g transform="translate(37.045952, 40.440556)"><g><path d="M 1.890625 0 L 1.890625 -19.890625 L 6.9375 -19.890625 L 6.9375 -4.109375 L 16.0625 -4.109375 L 16.0625 0 Z M 1.890625 0 "/></g></g></g><g fill="#ffffff" fill-opacity="1"><g transform="translate(52.398651, 40.440556)"><g><path d="M 4.34375 0 L 1.34375 -3 L 1.34375 -16.890625 L 4.34375 -19.890625 L 16 -19.890625 L 19 -16.890625 L 19 -3 L 16 0 Z M 7.359375 -3.828125 L 13.03125 -3.828125 L 13.984375 -4.78125 L 13.984375 -15.109375 L 12.984375 -16.0625 L 7.359375 -16.0625 L 6.390625 -15.109375 L 6.390625 -4.78125 Z M 7.359375 -3.828125 "/></g></g></g><g fill="#ffffff" fill-opacity="1"><g transform="translate(71.636753, 40.440556)"><g><path d="M 4.34375 0 L 1.34375 -3 L 1.34375 -16.890625 L 4.34375 -19.890625 L 15.46875 -19.890625 L 18.453125 -16.890625 L 18.453125 -13.21875 L 13.546875 -13.25 L 13.546875 -15.109375 L 12.578125 -16.0625 L 7.359375 -16.0625 L 6.390625 -15.109375 L 6.390625 -4.796875 L 7.359375 -3.828125 L 11.609375 -3.828125 L 14.1875 -6.125 L 14.1875 -6.828125 L 10.546875 -6.828125 L 10.546875 -10.6875 L 18.75 -10.6875 L 18.75 0 L 14.484375 0 L 14.484375 -1.78125 L 12.5 0 Z M 4.34375 0 "/></g></g></g><g fill="#ffffff" fill-opacity="1"><g transform="translate(92.601703, 40.440556)"><g><path d="M 4.34375 0 L 1.34375 -3 L 1.34375 -16.890625 L 4.34375 -19.890625 L 16 -19.890625 L 19 -16.890625 L 19 -3 L 16 0 Z M 7.359375 -3.828125 L 13.03125 -3.828125 L 13.984375 -4.78125 L 13.984375 -15.109375 L 12.984375 -16.0625 L 7.359375 -16.0625 L 6.390625 -15.109375 L 6.390625 -4.78125 Z M 7.359375 -3.828125 "/></g></g></g><g fill="#ffffff" fill-opacity="1"><g transform="translate(39.906714, 59.552834)"><g><path d="M 0.484375 -7.3125 L 6.296875 -7.3125 L 6.296875 -6.734375 L 3.734375 -6.734375 L 3.734375 0 L 3.046875 0 L 3.046875 -6.734375 L 0.484375 -6.734375 Z M 0.484375 -7.3125 "/></g></g></g><g fill="#ffffff" fill-opacity="1"><g transform="translate(49.479745, 59.552834)"><g/></g></g><g fill="#ffffff" fill-opacity="1"><g transform="translate(55.827213, 59.552834)"><g><path d="M 1.46875 0 L 0.78125 0 L 0.78125 -7.3125 L 3.140625 -7.3125 C 3.710938 -7.3125 4.203125 -7.253906 4.609375 -7.140625 C 5.023438 -7.023438 5.34375 -6.820312 5.5625 -6.53125 C 5.789062 -6.238281 5.90625 -5.816406 5.90625 -5.265625 C 5.90625 -4.734375 5.789062 -4.328125 5.5625 -4.046875 C 5.332031 -3.773438 5.023438 -3.601562 4.640625 -3.53125 L 4.640625 -3.3125 L 5.484375 -3.3125 C 5.671875 -3.3125 5.800781 -3.273438 5.875 -3.203125 C 5.957031 -3.128906 6 -3.003906 6 -2.828125 L 6 0 L 5.3125 0 L 5.3125 -3.015625 L 1.46875 -3.015625 Z M 1.46875 -6.734375 L 1.46875 -3.59375 L 3.140625 -3.59375 C 3.566406 -3.59375 3.9375 -3.625 4.25 -3.6875 C 4.5625 -3.75 4.800781 -3.890625 4.96875 -4.109375 C 5.132812 -4.335938 5.21875 -4.691406 5.21875 -5.171875 C 5.21875 -5.640625 5.132812 -5.984375 4.96875 -6.203125 C 4.800781 -6.429688 4.5625 -6.578125 4.25 -6.640625 C 3.9375 -6.703125 3.566406 -6.734375 3.140625 -6.734375 Z M 1.46875 -6.734375 "/></g></g></g><g fill="#ffffff" fill-opacity="1"><g transform="translate(65.410616, 59.552834)"><g/></g></g><g fill="#ffffff" fill-opacity="1"><g transform="translate(71.758084, 59.552834)"><g><path d="M 6.59375 0 L 5.921875 0 L 4.953125 -2.96875 L 2.015625 -2.96875 L 1.046875 0 L 0.375 0 L 2.78125 -7.3125 L 4.1875 -7.3125 Z M 3.375 -7.109375 L 2.203125 -3.546875 L 4.765625 -3.546875 L 3.59375 -7.109375 Z M 3.375 -7.109375 "/></g></g></g><g fill="#ffffff" fill-opacity="1"><g transform="translate(81.528176, 59.552834)"><g/></g></g><g fill="#ffffff" fill-opacity="1"><g transform="translate(87.875645, 59.552834)"><g><path d="M 3.03125 -7.3125 C 3.375 -7.3125 3.71875 -7.28125 4.0625 -7.21875 C 4.40625 -7.164062 4.734375 -7.066406 5.046875 -6.921875 C 5.359375 -6.785156 5.628906 -6.582031 5.859375 -6.3125 C 6.097656 -6.039062 6.285156 -5.6875 6.421875 -5.25 C 6.554688 -4.820312 6.625 -4.289062 6.625 -3.65625 C 6.625 -3.03125 6.554688 -2.5 6.421875 -2.0625 C 6.285156 -1.632812 6.097656 -1.285156 5.859375 -1.015625 C 5.628906 -0.742188 5.359375 -0.535156 5.046875 -0.390625 C 4.734375 -0.242188 4.40625 -0.140625 4.0625 -0.078125 C 3.71875 -0.0234375 3.375 0 3.03125 0 L 0.78125 0 L 0.78125 -7.3125 Z M 1.46875 -0.578125 L 3.03125 -0.578125 C 3.289062 -0.578125 3.554688 -0.59375 3.828125 -0.625 C 4.097656 -0.664062 4.359375 -0.738281 4.609375 -0.84375 C 4.859375 -0.957031 5.082031 -1.125 5.28125 -1.34375 C 5.488281 -1.570312 5.648438 -1.875 5.765625 -2.25 C 5.878906 -2.625 5.9375 -3.09375 5.9375 -3.65625 C 5.9375 -4.226562 5.878906 -4.703125 5.765625 -5.078125 C 5.648438 -5.453125 5.488281 -5.75 5.28125 -5.96875 C 5.082031 -6.1875 4.859375 -6.347656 4.609375 -6.453125 C 4.359375 -6.566406 4.097656 -6.640625 3.828125 -6.671875 C 3.554688 -6.710938 3.289062 -6.734375 3.03125 -6.734375 L 1.46875 -6.734375 Z M 1.46875 -0.578125 "/></g></g></g><g fill="#ffffff" fill-opacity="1"><g transform="translate(97.988003, 59.552834)"><g/></g></g><g fill="#ffffff" fill-opacity="1"><g transform="translate(104.335471, 59.552834)"><g><path d="M 5.171875 0 L 0.78125 0 L 0.78125 -7.3125 L 5.171875 -7.3125 L 5.171875 -6.734375 L 1.46875 -6.734375 L 1.46875 -3.953125 L 4.65625 -3.953125 L 4.65625 -3.375 L 1.46875 -3.375 L 1.46875 -0.578125 L 5.171875 -0.578125 Z M 5.171875 0 "/></g></g></g></svg>