<svg xmlns="http://www.w3.org/2000/svg" xmlns:xlink="http://www.w3.org/1999/xlink" width="500" zoomAndPan="magnify" viewBox="0 0 375 374.999991" height="500" preserveAspectRatio="xMidYMid meet" version="1.0"><defs><g/><clipPath id="2506a1dbde"><path d="M 201.335938 45.355469 L 307.859375 45.355469 L 307.859375 151.878906 L 201.335938 151.878906 Z M 201.335938 45.355469 " clip-rule="nonzero"/></clipPath><clipPath id="48142023c2"><path d="M 254.597656 45.355469 C 225.179688 45.355469 201.335938 69.203125 201.335938 98.617188 C 201.335938 128.03125 225.179688 151.878906 254.597656 151.878906 C 284.011719 151.878906 307.859375 128.03125 307.859375 98.617188 C 307.859375 69.203125 284.011719 45.355469 254.597656 45.355469 Z M 254.597656 45.355469 " clip-rule="nonzero"/></clipPath><clipPath id="6573db8ab0"><path d="M 58 57 L 216 57 L 216 288 L 58 288 Z M 58 57 " clip-rule="nonzero"/></clipPath><clipPath id="ef119101e3"><path d="M 110.4375 23.976562 L 225.757812 62.230469 L 142.171875 314.226562 L 26.847656 275.976562 Z M 110.4375 23.976562 " clip-rule="nonzero"/></clipPath><clipPath id="f0c7093b98"><path d="M 110.507812 23.773438 L 225.828125 62.023438 L 142.003906 314.734375 L 26.679688 276.480469 Z M 110.507812 23.773438 " clip-rule="nonzero"/></clipPath></defs><g fill="#3a3a3c" fill-opacity="1"><g transform="translate(130.999448, 303.0019)"><g><path d="M 3.859375 0 L 3.859375 -40.5625 L 14.140625 -40.5625 L 14.140625 -8.359375 L 32.75 -8.359375 L 32.75 0 Z M 3.859375 0 "/></g></g></g><g fill="#3a3a3c" fill-opacity="1"><g transform="translate(164.575701, 303.0019)"><g><path d="M 8.859375 0 L 2.75 -6.109375 L 2.75 -34.453125 L 8.859375 -40.5625 L 32.640625 -40.5625 L 38.75 -34.453125 L 38.75 -6.109375 L 32.640625 0 Z M 15.03125 -7.8125 L 26.59375 -7.8125 L 28.515625 -9.75 L 28.515625 -30.828125 L 26.484375 -32.75 L 15.03125 -32.75 L 13.046875 -30.828125 L 13.046875 -9.75 Z M 15.03125 -7.8125 "/></g></g></g><g fill="#3a3a3c" fill-opacity="1"><g transform="translate(206.078155, 303.0019)"><g><path d="M 8.859375 0 L 2.75 -6.109375 L 2.75 -34.453125 L 8.859375 -40.5625 L 31.546875 -40.5625 L 37.65625 -34.453125 L 37.65625 -26.96875 L 27.640625 -27.03125 L 27.640625 -30.828125 L 25.65625 -32.75 L 15.03125 -32.75 L 13.046875 -30.828125 L 13.046875 -9.796875 L 15.03125 -7.8125 L 23.671875 -7.8125 L 28.953125 -12.5 L 28.953125 -13.921875 L 21.515625 -13.921875 L 21.515625 -21.796875 L 38.25 -21.796875 L 38.25 0 L 29.5625 0 L 29.5625 -3.640625 L 25.484375 0 Z M 8.859375 0 "/></g></g></g><g fill="#3a3a3c" fill-opacity="1"><g transform="translate(251.103364, 303.0019)"><g><path d="M 8.859375 0 L 2.75 -6.109375 L 2.75 -34.453125 L 8.859375 -40.5625 L 32.640625 -40.5625 L 38.75 -34.453125 L 38.75 -6.109375 L 32.640625 0 Z M 15.03125 -7.8125 L 26.59375 -7.8125 L 28.515625 -9.75 L 28.515625 -30.828125 L 26.484375 -32.75 L 15.03125 -32.75 L 13.046875 -30.828125 L 13.046875 -9.75 Z M 15.03125 -7.8125 "/></g></g></g><g fill="#236dd2" fill-opacity="1"><g transform="translate(138.815928, 330.22577)"><g><path d="M 0.65625 -15.296875 L 14.125 -15.296875 L 14.125 -12.25 L 9.125 -12.25 L 9.125 0 L 5.65625 0 L 5.65625 -12.25 L 0.65625 -12.25 Z M 0.65625 -15.296875 "/></g></g></g><g fill="#236dd2" fill-opacity="1"><g transform="translate(170.935446, 330.22577)"><g><path d="M 4.765625 0 L 1.296875 0 L 1.296875 -15.296875 L 7.21875 -15.296875 C 8.132812 -15.296875 9 -15.226562 9.8125 -15.09375 C 10.625 -14.96875 11.347656 -14.75 11.984375 -14.4375 C 12.628906 -14.125 13.128906 -13.6875 13.484375 -13.125 C 13.847656 -12.570312 14.03125 -11.867188 14.03125 -11.015625 C 14.03125 -10.179688 13.832031 -9.523438 13.4375 -9.046875 C 13.050781 -8.578125 12.5625 -8.234375 11.96875 -8.015625 C 11.375 -7.804688 10.769531 -7.664062 10.15625 -7.59375 L 10.15625 -6.71875 L 12.390625 -6.71875 C 13.617188 -6.71875 14.234375 -6.101562 14.234375 -4.875 L 14.234375 0 L 10.75 0 L 10.75 -5.375 L 4.765625 -5.375 Z M 4.765625 -12.25 L 4.765625 -8.421875 L 7.21875 -8.421875 C 7.914062 -8.421875 8.515625 -8.441406 9.015625 -8.484375 C 9.515625 -8.535156 9.894531 -8.695312 10.15625 -8.96875 C 10.425781 -9.238281 10.5625 -9.691406 10.5625 -10.328125 C 10.5625 -10.972656 10.425781 -11.429688 10.15625 -11.703125 C 9.894531 -11.972656 9.515625 -12.128906 9.015625 -12.171875 C 8.515625 -12.222656 7.914062 -12.25 7.21875 -12.25 Z M 4.765625 -12.25 "/></g></g></g><g fill="#236dd2" fill-opacity="1"><g transform="translate(203.813754, 330.22577)"><g><path d="M 16.421875 0 L 12.90625 0 L 11.640625 -3.8125 L 5.203125 -3.8125 L 3.953125 0 L 0.4375 0 L 5.59375 -15.296875 L 11.234375 -15.296875 Z M 7.984375 -12.25 L 6.203125 -6.859375 L 10.625 -6.859375 L 8.84375 -12.25 Z M 7.984375 -12.25 "/></g></g></g><g fill="#236dd2" fill-opacity="1"><g transform="translate(238.014523, 330.22577)"><g><path d="M 6.9375 -15.296875 C 7.75 -15.296875 8.554688 -15.234375 9.359375 -15.109375 C 10.160156 -14.992188 10.914062 -14.785156 11.625 -14.484375 C 12.332031 -14.179688 12.957031 -13.75 13.5 -13.1875 C 14.050781 -12.625 14.484375 -11.890625 14.796875 -10.984375 C 15.109375 -10.078125 15.265625 -8.96875 15.265625 -7.65625 C 15.265625 -6.34375 15.109375 -5.234375 14.796875 -4.328125 C 14.484375 -3.421875 14.050781 -2.679688 13.5 -2.109375 C 12.957031 -1.546875 12.332031 -1.109375 11.625 -0.796875 C 10.914062 -0.492188 10.160156 -0.285156 9.359375 -0.171875 C 8.554688 -0.0546875 7.75 0 6.9375 0 L 1.296875 0 L 1.296875 -15.296875 Z M 4.765625 -3.03125 L 6.9375 -3.03125 C 7.613281 -3.03125 8.242188 -3.066406 8.828125 -3.140625 C 9.421875 -3.210938 9.941406 -3.394531 10.390625 -3.6875 C 10.835938 -3.976562 11.179688 -4.4375 11.421875 -5.0625 C 11.671875 -5.6875 11.796875 -6.550781 11.796875 -7.65625 C 11.796875 -8.75 11.671875 -9.609375 11.421875 -10.234375 C 11.179688 -10.859375 10.835938 -11.3125 10.390625 -11.59375 C 9.941406 -11.882812 9.421875 -12.066406 8.828125 -12.140625 C 8.242188 -12.210938 7.613281 -12.25 6.9375 -12.25 L 4.765625 -12.25 Z M 4.765625 -3.03125 "/></g></g></g><g fill="#236dd2" fill-opacity="1"><g transform="translate(271.716661, 330.22577)"><g><path d="M 12.203125 0 L 1.296875 0 L 1.296875 -15.296875 L 12.203125 -15.296875 L 12.203125 -12.25 L 4.765625 -12.25 L 4.765625 -9.171875 L 11.125 -9.171875 L 11.125 -6.140625 L 4.765625 -6.140625 L 4.765625 -3.03125 L 12.203125 -3.03125 Z M 12.203125 0 "/></g></g></g><g clip-path="url(#2506a1dbde)"><g clip-path="url(#48142023c2)"><path fill="#f7b030" d="M 201.335938 45.355469 L 307.859375 45.355469 L 307.859375 151.878906 L 201.335938 151.878906 Z M 201.335938 45.355469 " fill-opacity="1" fill-rule="nonzero"/></g></g><g clip-path="url(#6573db8ab0)"><g clip-path="url(#ef119101e3)"><g clip-path="url(#f0c7093b98)"><path fill="#236dd2" d="M 118.714844 218.207031 L 111.550781 212.613281 C 111.296875 212.40625 111.128906 212.460938 111.046875 212.792969 C 108.894531 221.820312 105.085938 230.078125 99.632812 237.605469 L 99.628906 237.617188 C 99.578125 237.691406 99.609375 237.804688 99.710938 237.867188 C 99.753906 237.894531 99.832031 237.898438 99.882812 237.871094 C 107.402344 232.597656 113.683594 226.144531 118.761719 218.453125 C 118.8125 218.367188 118.796875 218.257812 118.710938 218.207031 Z M 138.0625 207.695312 C 141.511719 211.085938 144.46875 214.832031 146.945312 218.953125 C 146.953125 218.976562 146.980469 218.996094 147.011719 219.011719 C 147.085938 219.054688 147.171875 219.007812 147.191406 218.941406 C 147.207031 218.910156 147.226562 218.882812 147.203125 218.855469 C 146.210938 213.695312 143.613281 209.207031 138.710938 206.96875 C 138.4375 206.832031 138.097656 206.941406 137.949219 207.191406 C 137.910156 207.253906 137.882812 207.332031 137.875 207.410156 C 137.863281 207.460938 137.921875 207.574219 138.0625 207.695312 Z M 113.066406 190.390625 C 109.203125 195.574219 103.167969 198.148438 98.976562 203.035156 C 98.933594 203.070312 98.941406 203.132812 98.960938 203.164062 C 99.019531 203.195312 99.042969 203.253906 99.078125 203.292969 C 99.175781 203.367188 99.25 203.375 99.328125 203.304688 C 101.601562 201.011719 104.300781 199.492188 107.402344 198.757812 C 107.8125 198.667969 108.144531 198.410156 108.363281 198.042969 C 109.785156 195.445312 111.398438 192.957031 113.214844 190.597656 C 113.253906 190.539062 113.269531 190.507812 113.261719 190.488281 C 113.21875 190.460938 113.179688 190.421875 113.164062 190.386719 C 113.125 190.347656 113.101562 190.351562 113.0625 190.386719 Z M 97.644531 179.285156 C 93.5625 174.886719 86.992188 174.667969 81.3125 175.410156 C 81.3125 175.410156 81.269531 175.445312 81.261719 175.457031 C 81.246094 175.488281 81.257812 175.535156 81.289062 175.550781 L 81.300781 175.558594 C 86.714844 176.632812 91.96875 178.070312 97.101562 179.832031 C 97.210938 179.875 97.300781 179.886719 97.382812 179.855469 C 97.527344 179.84375 97.625 179.78125 97.652344 179.699219 C 97.710938 179.5 97.703125 179.3125 97.644531 179.28125 Z M 142.992188 201.480469 L 153.515625 217.746094 L 153.558594 217.777344 C 153.617188 217.808594 153.6875 217.792969 153.722656 217.730469 C 153.738281 217.703125 153.746094 217.664062 153.71875 217.628906 L 144.832031 199.441406 C 144.742188 199.230469 144.628906 199.222656 144.484375 199.394531 L 143.007812 201.191406 C 142.917969 201.273438 142.914062 201.386719 142.996094 201.476562 Z M 119.089844 179.664062 C 106.035156 186.835938 91.78125 194.460938 88.308594 210.355469 L 88.3125 210.378906 L 88.40625 210.554688 C 88.453125 210.640625 88.492188 210.644531 88.539062 210.535156 C 92.1875 201.546875 98.035156 194.351562 106.089844 189.046875 C 110.464844 186.144531 115.257812 183.289062 119.234375 179.894531 C 119.261719 179.871094 119.289062 179.867188 119.289062 179.867188 C 119.332031 179.792969 119.300781 179.714844 119.226562 179.671875 C 119.183594 179.648438 119.140625 179.65625 119.089844 179.667969 Z M 102.511719 170.976562 L 103.84375 168.960938 L 103.890625 168.890625 C 103.9375 168.742188 103.851562 168.589844 103.691406 168.53125 C 103.691406 168.53125 103.652344 168.527344 103.621094 168.507812 L 81.574219 167.867188 C 81.460938 167.859375 81.40625 167.925781 81.402344 168.027344 C 81.375 168.105469 81.410156 168.148438 81.46875 168.144531 C 88.347656 169.085938 95.164062 170.097656 101.929688 171.226562 C 102.164062 171.265625 102.398438 171.167969 102.519531 170.964844 L 102.515625 170.976562 Z M 173.0625 161.925781 C 170.90625 164.722656 168.984375 167.164062 168.1875 170.640625 C 167.402344 174.070312 166.960938 177.546875 166.90625 181.074219 C 166.613281 194.132812 166.917969 207.382812 161.367188 219.578125 C 158.226562 226.472656 154.039062 232.734375 148.824219 238.359375 C 148.78125 238.394531 148.789062 238.417969 148.820312 238.457031 L 148.851562 238.472656 C 148.910156 238.507812 148.964844 238.484375 149.054688 238.433594 C 149.804688 237.832031 150.375 237.335938 150.703125 236.980469 C 160.5 226.773438 166.746094 214.773438 169.464844 200.960938 C 172.023438 188.078125 172.542969 174.902344 173.214844 161.96875 C 173.226562 161.777344 173.175781 161.765625 173.066406 161.917969 Z M 126.792969 130.441406 C 116.59375 134.695312 106.457031 138.648438 96.566406 144.054688 C 80.820312 152.65625 70.285156 166.417969 64.171875 183.359375 C 64.144531 183.402344 64.148438 183.429688 64.148438 183.46875 C 64.175781 183.519531 64.203125 183.578125 64.246094 183.601562 C 64.3125 183.625 64.363281 183.609375 64.394531 183.550781 C 66.324219 179.496094 68.496094 175.601562 70.902344 171.804688 C 78.34375 160.164062 88.917969 152.773438 101.398438 147.4375 C 109.917969 143.808594 116.355469 141.753906 122.394531 136.773438 C 124.527344 135.015625 125.949219 132.75 127.367188 130.429688 C 127.417969 130.34375 127.382812 130.238281 127.292969 130.183594 C 127.234375 130.152344 127.15625 130.144531 127.089844 130.199219 C 127.03125 130.265625 126.964844 130.304688 126.914062 130.355469 C 126.871094 130.394531 126.832031 130.425781 126.785156 130.441406 Z M 188.664062 115.214844 C 182.945312 119.398438 178.554688 125.058594 174.890625 131.070312 C 169.316406 140.167969 163.867188 149.351562 157.515625 157.925781 C 148.074219 170.679688 136.8125 181.695312 131.207031 196.945312 C 131.179688 196.988281 131.191406 197.035156 131.191406 197.035156 C 131.226562 197.078125 131.269531 197.101562 131.324219 197.113281 C 131.398438 197.15625 131.453125 197.128906 131.496094 197.058594 C 135.230469 190.253906 138.800781 184.675781 142.242188 180.3125 C 152.609375 167.136719 160.109375 157.960938 167.800781 145.496094 C 174.269531 134.953125 180.445312 124.082031 189.183594 115.1875 C 189.222656 115.152344 189.226562 115.113281 189.167969 115.078125 L 189.035156 115 C 188.976562 114.964844 188.929688 114.976562 188.886719 115.015625 C 188.824219 115.089844 188.75 115.144531 188.664062 115.21875 Z M 191.460938 94.207031 L 191.980469 94.535156 C 192.050781 94.578125 192.117188 94.535156 192.152344 94.476562 L 192.199219 94.429688 L 192.203125 94.414062 C 198.515625 84.175781 203.484375 75.765625 203.28125 75.644531 L 203.234375 75.617188 C 203.050781 75.570312 197.753906 83.761719 191.472656 93.953125 L 191.40625 94.035156 C 191.371094 94.09375 191.402344 94.171875 191.460938 94.207031 Z M 198.445312 66.628906 C 188.371094 71.609375 179.300781 78.035156 171.257812 85.921875 C 171.09375 86.0625 171.117188 86.191406 171.339844 86.285156 C 177.988281 88.84375 182.050781 91.53125 187.457031 94.582031 C 187.632812 94.664062 187.773438 94.648438 187.921875 94.5 C 196.152344 84.6875 202.542969 73.785156 208.480469 62.476562 C 208.488281 62.460938 208.496094 62.425781 208.488281 62.398438 C 208.519531 62.28125 208.4375 62.152344 208.308594 62.132812 C 208.269531 62.128906 208.246094 62.136719 208.230469 62.128906 C 187.652344 66.078125 171.15625 79.488281 158.429688 95.535156 C 134.789062 125.417969 115.199219 158.3125 95.746094 190.976562 L 95.738281 190.988281 C 95.710938 191.03125 95.714844 191.089844 95.757812 191.117188 C 95.800781 191.144531 95.847656 191.136719 95.886719 191.097656 C 104.21875 183.425781 114.769531 178.171875 124.828125 173.121094 C 125.101562 172.988281 125.429688 173.003906 125.695312 173.160156 C 126.074219 173.386719 126.238281 173.839844 126.101562 174.25 C 125.898438 174.78125 125.609375 175.378906 125.203125 175.988281 C 120.714844 183.355469 116.210938 190.714844 111.6875 198.074219 C 111.582031 198.25 111.621094 198.390625 111.792969 198.492188 C 117.078125 201.585938 122.582031 205.109375 126.664062 209.761719 C 126.722656 209.839844 126.800781 209.863281 126.871094 209.847656 C 127.027344 209.820312 127.042969 209.753906 126.953125 209.636719 C 124.222656 206.179688 121.015625 203.246094 117.3125 200.851562 C 117.152344 200.753906 117.113281 200.550781 117.195312 200.40625 L 117.203125 200.394531 C 123.753906 189.921875 130.597656 179.621094 137.730469 169.496094 C 144.421875 159.976562 151.703125 150.808594 158.804688 141.574219 C 160.652344 139.1875 162.886719 135.652344 164.839844 132.238281 C 169.910156 123.417969 175.65625 114.765625 184.121094 108.929688 C 184.347656 108.789062 184.621094 108.789062 184.832031 108.933594 C 188.304688 111.347656 191.4375 114.175781 194.226562 117.433594 C 194.261719 117.476562 194.324219 117.46875 194.394531 117.417969 C 194.480469 117.367188 194.496094 117.277344 194.425781 117.195312 C 187.269531 106.820312 174.511719 99.195312 163.152344 94.671875 C 162.707031 94.484375 162.277344 94.40625 161.898438 94.417969 C 161.851562 94.425781 161.800781 94.417969 161.769531 94.402344 C 161.652344 94.332031 161.617188 94.195312 161.691406 94.074219 C 161.695312 94.066406 161.707031 94.054688 161.726562 94.039062 C 163.429688 92.144531 165.105469 90.25 166.777344 88.394531 C 167.625 87.410156 167.957031 87.785156 168.953125 88.199219 C 180.621094 93.066406 190.957031 100.046875 199.957031 109.144531 L 199.972656 109.148438 C 200.011719 109.175781 200.085938 109.160156 200.109375 109.117188 C 200.125 109.085938 200.132812 109.046875 200.105469 109.019531 C 193.203125 98.515625 180.53125 90.878906 169.09375 86.449219 C 168.902344 86.375 168.886719 86.265625 169.015625 86.125 C 176.636719 78.34375 187.9375 69.703125 198.386719 66.445312 C 198.410156 66.441406 198.449219 66.445312 198.449219 66.445312 C 198.507812 66.476562 198.511719 66.539062 198.488281 66.582031 C 198.488281 66.582031 198.46875 66.613281 198.445312 66.617188 Z M 94.382812 184.707031 C 88.183594 182.789062 80.753906 181.3125 74.414062 183.226562 C 68.257812 185.070312 62.378906 190.347656 58.246094 195.410156 C 58.066406 195.621094 58.007812 195.582031 58.039062 195.328125 C 60.503906 174.5 69.910156 157.773438 86.253906 145.160156 C 91.949219 140.765625 98.546875 137.304688 105.792969 134.089844 C 114.394531 130.292969 123.109375 126.738281 131.945312 123.472656 C 132.105469 123.410156 132.253906 123.285156 132.367188 123.132812 C 137.1875 115.871094 142.554688 108.328125 148.414062 100.476562 C 163.929688 79.714844 183.769531 58.933594 211.492188 57.34375 C 211.710938 57.335938 211.820312 57.417969 211.898438 57.582031 C 219.21875 76.519531 212.6875 99.660156 203.226562 116.574219 C 195.796875 129.867188 187.304688 142.152344 178.507812 154.316406 C 178.398438 154.46875 178.339844 154.632812 178.347656 154.816406 C 178.355469 168.941406 178.226562 183.460938 176.238281 197.449219 C 173.042969 219.9375 159.972656 237.636719 140.964844 249.578125 C 140.8125 249.667969 140.769531 249.640625 140.851562 249.472656 C 144.5625 241.015625 147.101562 231.089844 142.808594 222.230469 C 140.921875 218.285156 138.554688 214.53125 135.746094 210.941406 C 135.707031 210.902344 135.6875 210.871094 135.644531 210.847656 C 135.46875 210.742188 135.242188 210.785156 135.109375 210.941406 C 133.640625 212.757812 132.09375 214.589844 130.480469 216.382812 C 130.253906 216.660156 130.167969 216.96875 130.25 217.332031 C 131.597656 223.195312 124.90625 226.308594 121.59375 221.15625 C 121.570312 221.125 121.558594 221.117188 121.527344 221.097656 C 121.425781 221.039062 121.304688 221.066406 121.253906 221.152344 C 121.238281 221.183594 121.230469 221.21875 121.21875 221.25 C 120.492188 233.476562 116.054688 243.859375 113.824219 254.957031 C 113.792969 255.132812 113.71875 255.265625 113.574219 255.382812 C 107.640625 260.246094 101.183594 264.269531 94.203125 267.429688 C 91.136719 268.835938 91.007812 268.617188 93.839844 266.777344 C 100.546875 262.429688 105.972656 255.085938 106.511719 246.90625 C 106.515625 246.878906 106.519531 246.863281 106.523438 246.851562 C 106.5625 246.792969 106.652344 246.773438 106.726562 246.8125 C 106.726562 246.8125 106.761719 246.855469 106.785156 246.890625 C 107.414062 250.289062 107.265625 253.636719 106.300781 256.964844 C 106.28125 257.035156 106.316406 257.113281 106.375 257.144531 C 106.4375 257.179688 106.492188 257.175781 106.535156 257.140625 C 108.761719 255.59375 110.359375 253.96875 111.164062 251.207031 C 113.71875 242.535156 116.582031 234.109375 117.878906 225.25 C 117.886719 225.171875 117.859375 225.121094 117.800781 225.082031 C 117.714844 225.03125 117.621094 225.054688 117.578125 225.125 C 110.851562 234.367188 102.566406 241.855469 91.503906 245.378906 C 91.433594 245.394531 91.355469 245.386719 91.300781 245.351562 C 91.199219 245.292969 91.15625 245.128906 91.21875 245.027344 L 91.246094 244.984375 C 99.070312 234.988281 105.378906 223.328125 108.222656 210.832031 C 108.292969 210.582031 108.175781 210.308594 107.925781 210.164062 C 106.558594 209.332031 104.90625 207.78125 103.144531 208.652344 C 95.1875 212.535156 88.992188 221.042969 84.59375 228.558594 C 84.515625 228.691406 84.363281 228.71875 84.246094 228.648438 C 84.203125 228.621094 84.148438 228.574219 84.121094 228.519531 C 81.980469 222.125 82.054688 216.671875 83.660156 210.128906 C 83.683594 210.0625 83.640625 210 83.578125 209.964844 C 83.519531 209.925781 83.4375 209.9375 83.378906 210.003906 C 78.75 215.070312 73.679688 219.65625 68.132812 223.699219 C 68.132812 223.699219 68.089844 223.734375 68.082031 223.75 C 68.046875 223.808594 68.058594 223.894531 68.132812 223.9375 C 68.160156 223.953125 68.195312 223.960938 68.195312 223.960938 L 70.480469 223.675781 C 70.851562 223.617188 70.925781 223.761719 70.695312 224.078125 C 69.242188 225.964844 67.433594 227.816406 66.363281 229.714844 C 65.058594 232.007812 64.101562 234.464844 63.480469 237.046875 C 63.46875 237.09375 63.492188 237.128906 63.53125 237.152344 C 63.578125 237.179688 63.640625 237.179688 63.664062 237.132812 C 68.265625 231.28125 75.300781 226.316406 81.128906 222.257812 C 82.269531 221.472656 82.402344 221.613281 81.539062 222.699219 C 78.242188 226.757812 75.324219 231.078125 72.753906 235.644531 C 72.710938 235.714844 72.75 235.816406 72.835938 235.871094 C 72.878906 235.894531 72.949219 235.917969 73 235.863281 C 74.84375 234.847656 76.796875 234.066406 78.851562 233.523438 C 78.886719 233.5 78.90625 233.535156 78.90625 233.535156 L 71.613281 248.097656 C 71.523438 248.242188 71.5625 248.285156 71.726562 248.203125 C 79.1875 243.925781 77.824219 250.792969 76.582031 255.117188 C 74.546875 262.179688 71.800781 268.910156 68.363281 275.339844 C 68.320312 275.410156 68.34375 275.503906 68.433594 275.558594 C 68.496094 275.59375 68.578125 275.582031 68.617188 275.507812 C 71.71875 272.125 81.121094 261.804688 85.550781 261.40625 C 85.71875 261.390625 85.859375 261.3125 85.96875 261.199219 L 101.207031 246.207031 C 101.277344 246.152344 101.371094 246.128906 101.445312 246.171875 C 101.519531 246.21875 101.539062 246.285156 101.542969 246.347656 C 101.289062 253.734375 98.085938 259.503906 91.933594 263.609375 C 91.902344 263.628906 91.855469 263.640625 91.8125 263.617188 C 91.769531 263.589844 91.738281 263.535156 91.773438 263.476562 L 91.796875 263.472656 C 93.992188 261.039062 95.429688 258.246094 96.089844 255.066406 C 96.175781 254.757812 96.074219 254.699219 95.824219 254.886719 C 92.84375 257.074219 90.3125 260.714844 87.941406 263.539062 C 84.792969 267.285156 81.988281 269.914062 78.335938 272.570312 C 78.300781 272.59375 78.277344 272.597656 78.277344 272.597656 C 78.191406 272.585938 78.136719 272.535156 78.136719 272.476562 L 78.179688 272.402344 C 79.671875 270.757812 80.894531 268.929688 81.824219 266.890625 C 81.847656 266.847656 81.84375 266.828125 81.847656 266.789062 C 81.835938 266.664062 81.730469 266.582031 81.601562 266.601562 C 81.5625 266.597656 81.539062 266.601562 81.507812 266.625 C 80.320312 267.5625 79.171875 268.5625 78.039062 269.671875 C 72.140625 275.484375 66.242188 281.320312 60.351562 287.183594 C 60.335938 287.210938 60.273438 287.214844 60.246094 287.199219 C 60.21875 287.183594 60.1875 287.121094 60.203125 287.097656 C 65.429688 276.492188 70.222656 266.144531 73.328125 254.675781 C 73.648438 253.5 73.871094 252.363281 73.960938 251.3125 C 73.980469 251.105469 73.898438 250.917969 73.722656 250.8125 C 73.53125 250.699219 73.300781 250.722656 73.144531 250.847656 C 68.683594 253.976562 65.800781 258.832031 63.949219 263.585938 C 63.53125 264.660156 63.398438 264.621094 63.527344 263.496094 C 64.199219 257.800781 65.25 251.289062 67.878906 246.160156 C 68.96875 244.058594 70.226562 242.039062 71.632812 240.101562 L 71.65625 240.097656 C 71.726562 239.980469 71.683594 239.816406 71.566406 239.75 C 71.480469 239.695312 71.378906 239.695312 71.296875 239.765625 L 66.59375 243.324219 C 66.417969 243.457031 66.382812 243.414062 66.464844 243.210938 C 67.257812 241.304688 67.96875 239.371094 68.605469 237.398438 C 69.148438 235.683594 68.816406 235.507812 67.617188 236.832031 C 64.515625 240.292969 62.175781 244.207031 60.582031 248.597656 C 60.363281 249.199219 60.234375 249.179688 60.203125 248.53125 C 59.863281 240.300781 60.972656 233.105469 61.9375 225.136719 C 61.980469 224.867188 62.058594 224.597656 62.203125 224.347656 C 62.363281 224.085938 62.578125 223.855469 62.832031 223.691406 C 70.59375 218.445312 77.675781 211.605469 83.980469 204.710938 C 84.449219 204.21875 85.34375 202.847656 86.6875 200.640625 C 86.777344 200.496094 86.78125 200.320312 86.726562 200.152344 C 86.414062 199.472656 85.839844 198.777344 85.730469 198.058594 C 85.15625 194.429688 86.738281 192.328125 90.449219 191.742188 C 90.65625 191.726562 90.8125 191.597656 90.921875 191.410156 L 94.515625 185.054688 C 94.613281 184.894531 94.578125 184.777344 94.378906 184.714844 Z M 94.382812 184.707031 " fill-opacity="1" fill-rule="evenodd"/></g></g></g></svg>